<svg width="40" height="40" viewBox="0 0 40 40" fill="none" xmlns="http://www.w3.org/2000/svg">
<path d="M9.99998 23.3334H23.3333V20H9.99998V23.3334ZM9.99998 18.3334H30V15H9.99998V18.3334ZM9.99998 13.3334H30V10H9.99998V13.3334ZM3.33331 36.6667V6.66671C3.33331 5.75004 3.6597 4.96532 4.31248 4.31254C4.96526 3.65976 5.74998 3.33337 6.66665 3.33337H33.3333C34.25 3.33337 35.0347 3.65976 35.6875 4.31254C36.3403 4.96532 36.6666 5.75004 36.6666 6.66671V26.6667C36.6666 27.5834 36.3403 28.3681 35.6875 29.0209C35.0347 29.6737 34.25 30 33.3333 30H9.99998L3.33331 36.6667ZM8.58331 26.6667H33.3333V6.66671H6.66665V28.5417L8.58331 26.6667Z" fill="white"/>
</svg>
