<svg width="34" height="34" viewBox="0 0 34 34" fill="none" xmlns="http://www.w3.org/2000/svg">
<path d="M5.66665 29.75C4.88748 29.75 4.22047 29.4726 3.6656 28.9177C3.11074 28.3629 2.83331 27.6959 2.83331 26.9167V11.3334C2.83331 10.5542 3.11074 9.88719 3.6656 9.33233C4.22047 8.77747 4.88748 8.50004 5.66665 8.50004H11.3333V5.66671C11.3333 4.88754 11.6107 4.22053 12.1656 3.66567C12.7205 3.1108 13.3875 2.83337 14.1666 2.83337H19.8333C20.6125 2.83337 21.2795 3.1108 21.8344 3.66567C22.3892 4.22053 22.6666 4.88754 22.6666 5.66671V8.50004H28.3333C29.1125 8.50004 29.7795 8.77747 30.3344 9.33233C30.8892 9.88719 31.1666 10.5542 31.1666 11.3334V26.9167C31.1666 27.6959 30.8892 28.3629 30.3344 28.9177C29.7795 29.4726 29.1125 29.75 28.3333 29.75H5.66665ZM5.66665 26.9167H28.3333V11.3334H5.66665V26.9167ZM14.1666 8.50004H19.8333V5.66671H14.1666V8.50004Z" fill="white"/>
</svg>
