<svg width="34" height="34" viewBox="0 0 34 34" fill="none" xmlns="http://www.w3.org/2000/svg">
<path d="M7.08333 31.1667C6.30417 31.1667 5.63715 30.8893 5.08229 30.3344C4.52743 29.7796 4.25 29.1125 4.25 28.3334V8.50004C4.25 7.72087 4.52743 7.05386 5.08229 6.499C5.63715 5.94414 6.30417 5.66671 7.08333 5.66671H8.5V2.83337H11.3333V5.66671H22.6667V2.83337H25.5V5.66671H26.9167C27.6958 5.66671 28.3628 5.94414 28.9177 6.499C29.4726 7.05386 29.75 7.72087 29.75 8.50004V28.3334C29.75 29.1125 29.4726 29.7796 28.9177 30.3344C28.3628 30.8893 27.6958 31.1667 26.9167 31.1667H7.08333ZM7.08333 28.3334H26.9167V14.1667H7.08333V28.3334ZM7.08333 11.3334H26.9167V8.50004H7.08333V11.3334ZM17 19.8334C16.5986 19.8334 16.2622 19.6976 15.9906 19.4261C15.7191 19.1546 15.5833 18.8181 15.5833 18.4167C15.5833 18.0153 15.7191 17.6789 15.9906 17.4073C16.2622 17.1358 16.5986 17 17 17C17.4014 17 17.7378 17.1358 18.0094 17.4073C18.2809 17.6789 18.4167 18.0153 18.4167 18.4167C18.4167 18.8181 18.2809 19.1546 18.0094 19.4261C17.7378 19.6976 17.4014 19.8334 17 19.8334ZM11.3333 19.8334C10.9319 19.8334 10.5955 19.6976 10.324 19.4261C10.0524 19.1546 9.91667 18.8181 9.91667 18.4167C9.91667 18.0153 10.0524 17.6789 10.324 17.4073C10.5955 17.1358 10.9319 17 11.3333 17C11.7347 17 12.0712 17.1358 12.3427 17.4073C12.6142 17.6789 12.75 18.0153 12.75 18.4167C12.75 18.8181 12.6142 19.1546 12.3427 19.4261C12.0712 19.6976 11.7347 19.8334 11.3333 19.8334ZM22.6667 19.8334C22.2653 19.8334 21.9288 19.6976 21.6573 19.4261C21.3858 19.1546 21.25 18.8181 21.25 18.4167C21.25 18.0153 21.3858 17.6789 21.6573 17.4073C21.9288 17.1358 22.2653 17 22.6667 17C23.0681 17 23.4045 17.1358 23.676 17.4073C23.9476 17.6789 24.0833 18.0153 24.0833 18.4167C24.0833 18.8181 23.9476 19.1546 23.676 19.4261C23.4045 19.6976 23.0681 19.8334 22.6667 19.8334ZM17 25.5C16.5986 25.5 16.2622 25.3643 15.9906 25.0927C15.7191 24.8212 15.5833 24.4848 15.5833 24.0834C15.5833 23.682 15.7191 23.3455 15.9906 23.074C16.2622 22.8025 16.5986 22.6667 17 22.6667C17.4014 22.6667 17.7378 22.8025 18.0094 23.074C18.2809 23.3455 18.4167 23.682 18.4167 24.0834C18.4167 24.4848 18.2809 24.8212 18.0094 25.0927C17.7378 25.3643 17.4014 25.5 17 25.5ZM11.3333 25.5C10.9319 25.5 10.5955 25.3643 10.324 25.0927C10.0524 24.8212 9.91667 24.4848 9.91667 24.0834C9.91667 23.682 10.0524 23.3455 10.324 23.074C10.5955 22.8025 10.9319 22.6667 11.3333 22.6667C11.7347 22.6667 12.0712 22.8025 12.3427 23.074C12.6142 23.3455 12.75 23.682 12.75 24.0834C12.75 24.4848 12.6142 24.8212 12.3427 25.0927C12.0712 25.3643 11.7347 25.5 11.3333 25.5ZM22.6667 25.5C22.2653 25.5 21.9288 25.3643 21.6573 25.0927C21.3858 24.8212 21.25 24.4848 21.25 24.0834C21.25 23.682 21.3858 23.3455 21.6573 23.074C21.9288 22.8025 22.2653 22.6667 22.6667 22.6667C23.0681 22.6667 23.4045 22.8025 23.676 23.074C23.9476 23.3455 24.0833 23.682 24.0833 24.0834C24.0833 24.4848 23.9476 24.8212 23.676 25.0927C23.4045 25.3643 23.0681 25.5 22.6667 25.5Z" fill="white"/>
</svg>
