<svg width="34" height="34" viewBox="0 0 34 34" fill="none" xmlns="http://www.w3.org/2000/svg">
<path d="M17 17C15.4417 17 14.1077 16.4452 12.9979 15.3354C11.8882 14.2257 11.3334 12.8917 11.3334 11.3334C11.3334 9.77502 11.8882 8.44099 12.9979 7.33127C14.1077 6.22155 15.4417 5.66669 17 5.66669C18.5584 5.66669 19.8924 6.22155 21.0021 7.33127C22.1118 8.44099 22.6667 9.77502 22.6667 11.3334C22.6667 12.8917 22.1118 14.2257 21.0021 15.3354C19.8924 16.4452 18.5584 17 17 17ZM5.66669 28.3334V24.3667C5.66669 23.5639 5.87328 22.8261 6.28648 22.1531C6.69967 21.4802 7.24863 20.9667 7.93335 20.6125C9.39724 19.8806 10.8847 19.3316 12.3959 18.9656C13.907 18.5997 15.4417 18.4167 17 18.4167C18.5584 18.4167 20.0931 18.5997 21.6042 18.9656C23.1153 19.3316 24.6028 19.8806 26.0667 20.6125C26.7514 20.9667 27.3004 21.4802 27.7136 22.1531C28.1268 22.8261 28.3334 23.5639 28.3334 24.3667V28.3334H5.66669ZM8.50002 25.5H25.5V24.3667C25.5 24.107 25.4351 23.8709 25.3052 23.6584C25.1754 23.4459 25.0042 23.2806 24.7917 23.1625C23.5167 22.525 22.2299 22.0469 20.9313 21.7281C19.6327 21.4094 18.3222 21.25 17 21.25C15.6778 21.25 14.3674 21.4094 13.0688 21.7281C11.7702 22.0469 10.4834 22.525 9.20835 23.1625C8.99585 23.2806 8.82467 23.4459 8.69481 23.6584C8.56495 23.8709 8.50002 24.107 8.50002 24.3667V25.5ZM17 14.1667C17.7792 14.1667 18.4462 13.8893 19.0011 13.3344C19.5559 12.7795 19.8334 12.1125 19.8334 11.3334C19.8334 10.5542 19.5559 9.88717 19.0011 9.33231C18.4462 8.77745 17.7792 8.50002 17 8.50002C16.2209 8.50002 15.5538 8.77745 14.999 9.33231C14.4441 9.88717 14.1667 10.5542 14.1667 11.3334C14.1667 12.1125 14.4441 12.7795 14.999 13.3344C15.5538 13.8893 16.2209 14.1667 17 14.1667Z" fill="white"/>
</svg>
