<svg width="167" height="50" viewBox="0 0 167 50" fill="none" xmlns="http://www.w3.org/2000/svg">
<path d="M8.352 22.952H20.484V27.488H8.352V22.952ZM8.784 33.32H22.5V38H2.988V12.8H22.032V17.48H8.784V33.32ZM24.0854 38L32.7614 26.624L32.6534 29.72L24.3374 18.632H30.6374L35.8934 25.868L33.5174 25.94L38.9534 18.632H44.9294L36.5774 29.612V26.588L45.2174 38H38.8454L33.3374 30.296L35.6774 30.62L30.2054 38H24.0854ZM56.5619 38.288C54.4979 38.288 52.6619 37.856 51.0539 36.992C49.4699 36.128 48.2099 34.952 47.2739 33.464C46.3619 31.952 45.9059 30.236 45.9059 28.316C45.9059 26.372 46.3619 24.656 47.2739 23.168C48.2099 21.656 49.4699 20.48 51.0539 19.64C52.6619 18.776 54.4979 18.344 56.5619 18.344C58.6019 18.344 60.4259 18.776 62.0339 19.64C63.6419 20.48 64.9019 21.644 65.8139 23.132C66.7259 24.62 67.1819 26.348 67.1819 28.316C67.1819 30.236 66.7259 31.952 65.8139 33.464C64.9019 34.952 63.6419 36.128 62.0339 36.992C60.4259 37.856 58.6019 38.288 56.5619 38.288ZM56.5619 33.68C57.4979 33.68 58.3379 33.464 59.0819 33.032C59.8259 32.6 60.4139 31.988 60.8459 31.196C61.2779 30.38 61.4939 29.42 61.4939 28.316C61.4939 27.188 61.2779 26.228 60.8459 25.436C60.4139 24.644 59.8259 24.032 59.0819 23.6C58.3379 23.168 57.4979 22.952 56.5619 22.952C55.6259 22.952 54.7859 23.168 54.0419 23.6C53.2979 24.032 52.6979 24.644 52.2419 25.436C51.8099 26.228 51.5939 27.188 51.5939 28.316C51.5939 29.42 51.8099 30.38 52.2419 31.196C52.6979 31.988 53.2979 32.6 54.0419 33.032C54.7859 33.464 55.6259 33.68 56.5619 33.68ZM71.3318 38V12.8H83.6438C86.8118 12.8 89.1878 13.4 90.7718 14.6C92.3798 15.8 93.1838 17.384 93.1838 19.352C93.1838 20.672 92.8598 21.824 92.2118 22.808C91.5638 23.768 90.6758 24.512 89.5478 25.04C88.4198 25.568 87.1238 25.832 85.6598 25.832L86.3438 24.356C87.9278 24.356 89.3318 24.62 90.5558 25.148C91.7798 25.652 92.7278 26.408 93.3998 27.416C94.0958 28.424 94.4438 29.66 94.4438 31.124C94.4438 33.284 93.5918 34.976 91.8878 36.2C90.1838 37.4 87.6758 38 84.3638 38H71.3318ZM77.1278 33.608H83.9318C85.4438 33.608 86.5838 33.368 87.3517 32.888C88.1438 32.384 88.5398 31.592 88.5398 30.512C88.5398 29.456 88.1438 28.676 87.3517 28.172C86.5838 27.644 85.4438 27.38 83.9318 27.38H76.6958V23.132H82.9238C84.3398 23.132 85.4198 22.892 86.1638 22.412C86.9318 21.908 87.3158 21.152 87.3158 20.144C87.3158 19.16 86.9318 18.428 86.1638 17.948C85.4198 17.444 84.3398 17.192 82.9238 17.192H77.1278V33.608ZM107.679 38.288C105.615 38.288 103.779 37.856 102.171 36.992C100.587 36.128 99.3271 34.952 98.3911 33.464C97.4791 31.952 97.0231 30.236 97.0231 28.316C97.0231 26.372 97.4791 24.656 98.3911 23.168C99.3271 21.656 100.587 20.48 102.171 19.64C103.779 18.776 105.615 18.344 107.679 18.344C109.719 18.344 111.543 18.776 113.151 19.64C114.759 20.48 116.019 21.644 116.931 23.132C117.843 24.62 118.299 26.348 118.299 28.316C118.299 30.236 117.843 31.952 116.931 33.464C116.019 34.952 114.759 36.128 113.151 36.992C111.543 37.856 109.719 38.288 107.679 38.288ZM107.679 33.68C108.615 33.68 109.455 33.464 110.199 33.032C110.943 32.6 111.531 31.988 111.963 31.196C112.395 30.38 112.611 29.42 112.611 28.316C112.611 27.188 112.395 26.228 111.963 25.436C111.531 24.644 110.943 24.032 110.199 23.6C109.455 23.168 108.615 22.952 107.679 22.952C106.743 22.952 105.903 23.168 105.159 23.6C104.415 24.032 103.815 24.644 103.359 25.436C102.927 26.228 102.711 27.188 102.711 28.316C102.711 29.42 102.927 30.38 103.359 31.196C103.815 31.988 104.415 32.6 105.159 33.032C105.903 33.464 106.743 33.68 107.679 33.68ZM131.269 38.288C129.205 38.288 127.369 37.856 125.761 36.992C124.177 36.128 122.917 34.952 121.981 33.464C121.069 31.952 120.613 30.236 120.613 28.316C120.613 26.372 121.069 24.656 121.981 23.168C122.917 21.656 124.177 20.48 125.761 19.64C127.369 18.776 129.205 18.344 131.269 18.344C133.309 18.344 135.133 18.776 136.741 19.64C138.349 20.48 139.609 21.644 140.521 23.132C141.433 24.62 141.889 26.348 141.889 28.316C141.889 30.236 141.433 31.952 140.521 33.464C139.609 34.952 138.349 36.128 136.741 36.992C135.133 37.856 133.309 38.288 131.269 38.288ZM131.269 33.68C132.205 33.68 133.045 33.464 133.789 33.032C134.533 32.6 135.121 31.988 135.553 31.196C135.985 30.38 136.201 29.42 136.201 28.316C136.201 27.188 135.985 26.228 135.553 25.436C135.121 24.644 134.533 24.032 133.789 23.6C133.045 23.168 132.205 22.952 131.269 22.952C130.333 22.952 129.493 23.168 128.749 23.6C128.005 24.032 127.405 24.644 126.949 25.436C126.517 26.228 126.301 27.188 126.301 28.316C126.301 29.42 126.517 30.38 126.949 31.196C127.405 31.988 128.005 32.6 128.749 33.032C129.493 33.464 130.333 33.68 131.269 33.68ZM150.287 34.04L150.431 27.2L159.467 18.632H166.163L157.487 27.452L154.571 29.828L150.287 34.04ZM145.643 38V11.288H151.259V38H145.643ZM160.079 38L153.527 29.864L157.055 25.508L166.883 38H160.079Z" fill="white"/>
</svg>
